<?xml version="1.0" standalone="no"?>
<!DOCTYPE svg PUBLIC "-//W3C//DTD SVG 20010904//EN"
 "http://www.w3.org/TR/2001/REC-SVG-20010904/DTD/svg10.dtd">
<svg version="1.0" xmlns="http://www.w3.org/2000/svg"
 width="1208.000000pt" height="400.000000pt" viewBox="0 0 1208.000000 400.000000"
 preserveAspectRatio="xMidYMid meet">

<g transform="translate(0.000000,400.000000) scale(0.100000,-0.100000)"
fill="white" stroke="none">
<path d="M0 2000 l0 -2000 995 0 995 0 0 1005 0 1005 1000 0 1000 0 0 995 0
995 -1995 0 -1995 0 0 -2000z m3030 1000 l0 -30 -1030 0 -1030 0 0 30 0 30
1030 0 1030 0 0 -30z"/>
<path d="M4050 2000 l0 -2000 1990 0 1990 0 0 2000 0 2000 -1990 0 -1990 0 0
-2000z m3020 1000 l0 -30 -1030 0 -1030 0 0 30 0 30 1030 0 1030 0 0 -30z m0
-2000 l0 -30 -1030 0 -1030 0 0 30 0 30 1030 0 1030 0 0 -30z"/>
<path d="M8090 2000 l0 -2000 1995 0 1995 0 0 985 0 985 -1005 0 -1005 0 0 30
0 30 1005 0 1005 0 0 985 0 985 -1995 0 -1995 0 0 -2000z"/>
<path d="M2050 975 l0 -975 970 0 970 0 0 975 0 975 -970 0 -970 0 0 -975z"/>
</g>
</svg>
