<?xml version="1.0" encoding="UTF-8" standalone="no"?>
<!DOCTYPE svg PUBLIC "-//W3C//DTD SVG 1.1//EN" "http://www.w3.org/Graphics/SVG/1.1/DTD/svg11.dtd">
<svg width="100%" height="100%" viewBox="0 0 319 319" version="1.1" xmlns="http://www.w3.org/2000/svg" xmlns:xlink="http://www.w3.org/1999/xlink" xml:space="preserve" xmlns:serif="http://www.serif.com/" style="fill-rule:evenodd;clip-rule:evenodd;stroke-linejoin:round;stroke-miterlimit:1.5;">
    <g transform="matrix(1,0,0,1,-588.757,-347.162)">
        <rect x="588.757" y="347.162" width="318.595" height="318.595" style="fill-opacity:0;"/>
        <clipPath id="_clip1">
            <rect x="588.757" y="347.162" width="318.595" height="318.595"/>
        </clipPath>
        <g clip-path="url(#_clip1)">
            <path d="M588.757,347.162L907.351,665.757" style="fill:none;stroke:black;stroke-width:150px;"/>
            <g transform="matrix(6.12323e-17,1,-1,6.12323e-17,1254.51,-241.595)">
                <path d="M588.757,347.162L641.849,400.254" style="fill:none;stroke:black;stroke-width:150px;"/>
            </g>
        </g>
        <g transform="matrix(-1,-1.22465e-16,1.22465e-16,-1,1496.11,1012.92)">
            <rect x="588.757" y="347.162" width="318.595" height="318.595" style="fill-opacity:0;"/>
            <clipPath id="_clip2">
                <rect x="588.757" y="347.162" width="318.595" height="318.595"/>
            </clipPath>
            <g clip-path="url(#_clip2)">
                <path d="M588.757,347.162L907.351,665.757" style="fill:none;stroke:black;stroke-width:150px;"/>
                <g transform="matrix(6.12323e-17,1,-1,6.12323e-17,1254.51,-241.595)">
                    <path d="M588.757,347.162L641.849,400.254" style="fill:none;stroke:black;stroke-width:150px;"/>
                </g>
            </g>
        </g>
    </g>
</svg>
